<?xml version="1.0" encoding="utf-8"?>
<!-- Generator: Adobe Illustrator 23.0.1, SVG Export Plug-In . SVG Version: 6.00 Build 0)  -->
<svg version="1.1" id="Layer_1" xmlns="http://www.w3.org/2000/svg" xmlns:xlink="http://www.w3.org/1999/xlink" x="0px" y="0px"
	 viewBox="0 0 481.89 340.16" style="enable-background:new 0 0 481.89 340.16;" xml:space="preserve">
<style type="text/css">
	.st0{opacity:0.5;fill:#A6C8E6;enable-background:new    ;}
	.st1{fill:#E14A4A;}
	.st2{fill:#FCB841;}
	.st3{fill:#FCB017;}
	.st4{fill:#E09A26;}
	.st5{fill:#FCB840;}
	.st6{fill:#E9E7E7;}
	.st7{fill:#BF999C;}
	.st8{fill:#BB7E85;}
	.st9{fill:#FACED3;}
	.st10{fill:#E97F8E;}
	.st11{fill:#E8465E;}
	.st12{fill:#EF5A6F;}
	.st13{fill:#DC2026;}
	.st14{fill:#232323;}
	.st15{fill:#F0CB7D;}
	.st16{fill:#E5AB4E;}
	.st17{fill:#AE722A;}
	.st18{fill:none;}
	.st19{font-family:'Arial-BoldMT';}
	.st20{font-size:26.2832px;}
	.st21{font-family:'ArialMT';}
</style>
<g id="Layer_9">
</g>
<g id="Layer_3">
</g>
<g id="Layer_4">
</g>
<g id="Layer_5">
</g>
<g id="triangles">
</g>
<g id="Layer_6">
</g>
<g id="Layer_7">
</g>
<g id="Layer_8">
</g>
<g>
	<path class="st0" d="M397.49,223.91H78.61c-1.64,0-2.97-1.33-2.97-2.97v-3.73c0-1.64,1.33-2.97,2.97-2.97h318.88
		c1.64,0,2.97,1.33,2.97,2.97v3.73C400.46,222.59,399.13,223.91,397.49,223.91z"/>
	<path class="st0" d="M397.49,272.92H78.61c-1.64,0-2.97-1.33-2.97-2.97v-3.73c0-1.64,1.33-2.97,2.97-2.97h318.88
		c1.64,0,2.97,1.33,2.97,2.97v3.73C400.46,271.59,399.13,272.92,397.49,272.92z"/>
	<path class="st0" d="M397.49,321.93H78.61c-1.64,0-2.97-1.33-2.97-2.97v-3.73c0-1.64,1.33-2.97,2.97-2.97h318.88
		c1.64,0,2.97,1.33,2.97,2.97v3.73C400.46,320.6,399.13,321.93,397.49,321.93z"/>
	<path class="st0" d="M397.49,27.88H78.61c-1.64,0-2.97-1.33-2.97-2.97v-3.73c0-1.64,1.33-2.97,2.97-2.97h318.88
		c1.64,0,2.97,1.33,2.97,2.97v3.73C400.46,26.56,399.13,27.88,397.49,27.88z"/>
	<path class="st0" d="M397.49,76.89H78.61c-1.64,0-2.97-1.33-2.97-2.97V70.2c0-1.64,1.33-2.97,2.97-2.97h318.88
		c1.64,0,2.97,1.33,2.97,2.97v3.73C400.46,75.56,399.13,76.89,397.49,76.89z"/>
	<path class="st0" d="M397.49,125.9H78.61c-1.64,0-2.97-1.33-2.97-2.97v-3.73c0-1.64,1.33-2.97,2.97-2.97h318.88
		c1.64,0,2.97,1.33,2.97,2.97v3.73C400.46,124.57,399.13,125.9,397.49,125.9z"/>
	<path class="st0" d="M397.49,174.91H78.61c-1.64,0-2.97-1.33-2.97-2.97v-3.73c0-1.64,1.33-2.97,2.97-2.97h318.88
		c1.64,0,2.97,1.33,2.97,2.97v3.73C400.46,173.58,399.13,174.91,397.49,174.91z"/>
	<path class="st1" d="M106.88,329.52V10.64c0-1.64,1.33-2.97,2.97-2.97h3.73c1.64,0,2.97,1.33,2.97,2.97v318.88
		c0,1.64-1.33,2.97-2.97,2.97h-3.73C108.21,332.48,106.88,331.16,106.88,329.52z"/>
	<g>
		<g>
			
				<rect x="266.97" y="76.05" transform="matrix(0.7615 -0.6482 0.6482 0.7615 25.0979 229.3349)" class="st2" width="114.38" height="9.02"/>
			
				<rect x="272.82" y="82.92" transform="matrix(0.7615 -0.6482 0.6482 0.7615 22.0405 234.7659)" class="st3" width="114.38" height="9.02"/>
			
				<rect x="278.66" y="89.79" transform="matrix(0.7615 -0.6482 0.6482 0.7615 18.9852 240.1883)" class="st4" width="114.38" height="9.02"/>
		</g>
		<path class="st5" d="M277.67,114.19c0,0-2.99,6.86-1.25,8.92s7.1-2.05,7.1-2.05L277.67,114.19z"/>
		<path class="st3" d="M289.37,127.93c0,0-6.02,3.32-7.63,1.1c-1.61-2.23,1.78-7.97,1.78-7.97L289.37,127.93z"/>
		<path class="st4" d="M295.21,134.8c0,0-7.94,0.32-9.03-1.21s3.18-5.66,3.18-5.66L295.21,134.8z"/>
		<polygon class="st6" points="364.68,40.12 364.77,40.04 368.77,36.75 386.29,57.73 382.3,60.64 		"/>
		<polygon class="st6" points="378.71,29.48 378.8,29.41 383.34,26.23 400.17,46.95 396.32,50 		"/>
		<polygon class="st7" points="386.27,57.72 396.32,50 380.6,50.92 		"/>
		<polygon class="st8" points="390.63,43.37 380.6,50.92 396.32,50 		"/>
		<polygon class="st9" points="380.58,50.92 390.63,43.37 374.91,44.12 		"/>
		<polygon class="st10" points="384.85,36.63 374.91,44.12 390.61,43.36 		"/>
		<polygon class="st11" points="374.91,44.12 384.85,36.63 368.81,36.73 		"/>
		<polygon class="st12" points="378.78,29.42 368.81,36.73 384.83,36.62 		"/>
		<path class="st13" d="M383.34,26.23c0,0,15.87-6.63,21.28,0.49c5.41,7.13-4.45,20.23-4.45,20.23L383.34,26.23z"/>
		<path class="st14" d="M277.63,114.19l-13.71,31.23l31.26-10.6c0.49-0.26-7.72,0.23-8.69-1.25c-1-1.54,2.86-5.64,2.87-5.64
			c0,0-5.94,2.87-7.33,1.49c-1.35-1.33,0.2-6.21,1.49-8.36c-1.95,1.49-5.83,3.46-6.98,2.14S275.91,119.55,277.63,114.19z"/>
		<path class="st15" d="M277.63,114.19l-10.13,23.07c0.43-0.69,4.86-2.97,4.35-0.71c-0.17,0.76,11.66-15.48,11.66-15.48
			c0.02-0.03-6.18,4.19-7.29,1.67C275.1,120.16,277.99,114.18,277.63,114.19z"/>
		<path class="st16" d="M283.54,121.03c0,0-14.38,17.87-12.76,18.38c1.61,0.51,18.61-11.52,18.61-11.52
			c0.06-0.07-6.01,2.7-7.32,1.42C280.8,128.07,282.78,122.2,283.54,121.03z"/>
		<path class="st17" d="M274.21,137.9c0,0,2.67-0.85,3.15,0.39c0.49,1.24,0.21,2.52,0.21,2.52l17.85-6.06c0-0.29-9.02,0.26-9.02-1.6
			s3.11-5.33,3.11-5.33L274.21,137.9z"/>
	</g>
	<rect x="119.92" y="97.57" class="st18" width="154.29" height="39.35"/>
	<text transform="matrix(1 0 0 1 119.9248 116.3876)" class="st14 st19 st20">ACADEMIC</text>
	<text transform="matrix(1 0 0 1 261.5548 116.3876)" class="st21 st20"> </text>
	<rect x="119.92" y="145.57" class="st18" width="154.29" height="39.35"/>
	<text transform="matrix(1 0 0 1 119.9248 164.3935)" class="st14 st19 st20">SUPPORT</text>
	<text transform="matrix(1 0 0 1 246.9748 164.3935)" class="st21 st20"> </text>
</g>
</svg>
