<?xml version="1.0" encoding="utf-8"?>
<!-- Generator: Adobe Illustrator 23.0.1, SVG Export Plug-In . SVG Version: 6.00 Build 0)  -->
<svg version="1.1" xmlns="http://www.w3.org/2000/svg" xmlns:xlink="http://www.w3.org/1999/xlink" x="0px" y="0px"
	 viewBox="0 0 481.89 340.16" style="enable-background:new 0 0 481.89 340.16;" xml:space="preserve">
<style type="text/css">
	.st0{fill:#A6C8E6;}
	.st1{fill:#E14A4A;}
	.st2{fill:#DC2026;}
	.st3{fill:none;}
	.st4{fill:#232323;}
	.st5{font-family:'Arial-BoldMT';}
	.st6{font-size:27px;}
</style>
<g id="circles">
</g>
<g id="people">
</g>
<g id="connectors">
	<circle class="st0" cx="68.78" cy="265.41" r="45.88"/>
	<circle class="st0" cx="413.11" cy="265.41" r="45.88"/>
	<g>
		<circle class="st0" cx="240.94" cy="74.75" r="45.88"/>
		<circle class="st1" cx="240.94" cy="58.83" r="10.43"/>
		<g>
			<path class="st1" d="M227.1,96.41c0,0,1.23-26.11,13.92-24.84c0.01,22.67-0.1,24.89-0.1,24.89L227.1,96.41z"/>
			<path class="st1" d="M254.78,96.54c0,0-1.06-26.14-13.76-24.97c-0.19,22.67-0.05,24.92-0.05,24.92L254.78,96.54z"/>
		</g>
	</g>
	<g>
		<circle class="st0" cx="413.11" cy="265.41" r="45.88"/>
		<circle class="st1" cx="413.11" cy="249.49" r="10.43"/>
		<g>
			<path class="st1" d="M399.27,287.06c0,0,1.23-26.11,13.92-24.84c0.01,22.67-0.1,24.89-0.1,24.89L399.27,287.06z"/>
			<path class="st1" d="M426.95,287.2c0,0-1.06-26.14-13.76-24.97c-0.19,22.67-0.05,24.92-0.05,24.92L426.95,287.2z"/>
		</g>
	</g>
	<g>
		<circle class="st0" cx="68.78" cy="265.41" r="45.88"/>
		<circle class="st1" cx="68.78" cy="249.49" r="10.43"/>
		<g>
			<path class="st1" d="M54.94,287.06c0,0,1.23-26.11,13.92-24.84c0.01,22.67-0.1,24.89-0.1,24.89L54.94,287.06z"/>
			<path class="st1" d="M82.62,287.2c0,0-1.06-26.14-13.76-24.97c-0.19,22.67-0.05,24.92-0.05,24.92L82.62,287.2z"/>
		</g>
	</g>
	<g>
		<polygon class="st2" points="187.49,121.21 200.05,117.37 194.93,125.75 		"/>
		<polygon class="st2" points="189.81,134.14 187.49,121.21 182.37,129.6 		"/>
		<polygon class="st2" points="189.81,134.14 177.25,137.98 182.37,129.6 		"/>
		<polygon class="st2" points="187.49,121.21 189.81,134.14 194.93,125.75 		"/>
	</g>
	<g>
		<polygon class="st2" points="307.27,136.06 319.83,139.9 314.7,131.52 		"/>
		<polygon class="st2" points="309.58,123.13 307.27,136.06 302.15,127.67 		"/>
		<polygon class="st2" points="309.58,123.13 297.02,119.29 302.15,127.67 		"/>
		<polygon class="st2" points="307.27,136.06 309.58,123.13 314.7,131.52 		"/>
	</g>
	<g>
		<polygon class="st2" points="349.36,171.23 361.92,175.08 356.79,166.69 		"/>
		<polygon class="st2" points="351.67,158.3 349.36,171.23 344.24,162.85 		"/>
		<polygon class="st2" points="351.67,158.3 339.12,154.46 344.24,162.85 		"/>
		<polygon class="st2" points="349.36,171.23 351.67,158.3 356.79,166.69 		"/>
	</g>
	<g>
		<polygon class="st2" points="380.04,206.86 392.6,210.7 387.47,202.32 		"/>
		<polygon class="st2" points="382.35,193.93 380.04,206.86 374.92,198.47 		"/>
		<polygon class="st2" points="382.35,193.93 369.79,190.09 374.92,198.47 		"/>
		<polygon class="st2" points="380.04,206.86 382.35,193.93 387.47,202.32 		"/>
	</g>
	<g>
		<polygon class="st2" points="155.65,156.38 168.21,152.54 163.09,160.92 		"/>
		<polygon class="st2" points="157.96,169.31 155.65,156.38 150.53,164.77 		"/>
		<polygon class="st2" points="157.96,169.31 145.41,173.15 150.53,164.77 		"/>
		<polygon class="st2" points="155.65,156.38 157.96,169.31 163.09,160.92 		"/>
	</g>
	<g>
		<polygon class="st2" points="120,193.93 132.56,190.09 127.44,198.47 		"/>
		<polygon class="st2" points="122.32,206.86 120,193.93 114.88,202.32 		"/>
		<polygon class="st2" points="122.32,206.86 109.76,210.7 114.88,202.32 		"/>
		<polygon class="st2" points="120,193.93 122.32,206.86 127.44,198.47 		"/>
	</g>
	<g>
		<polygon class="st2" points="159.42,270.34 171,276.54 161.44,278.82 		"/>
		<polygon class="st2" points="151.88,281.09 159.42,270.34 149.86,272.61 		"/>
		<polygon class="st2" points="151.88,281.09 140.3,274.88 149.86,272.61 		"/>
		<polygon class="st2" points="159.42,270.34 151.88,281.09 161.44,278.82 		"/>
	</g>
	<g>
		<polygon class="st2" points="214.05,271.47 225.63,277.68 216.07,279.95 		"/>
		<polygon class="st2" points="206.51,282.22 214.05,271.47 204.49,273.75 		"/>
		<polygon class="st2" points="206.51,282.22 194.93,276.02 204.49,273.75 		"/>
		<polygon class="st2" points="214.05,271.47 206.51,282.22 216.07,279.95 		"/>
	</g>
	<g>
		<polygon class="st2" points="266.97,271.47 278.55,277.68 268.99,279.95 		"/>
		<polygon class="st2" points="259.43,282.22 266.97,271.47 257.41,273.75 		"/>
		<polygon class="st2" points="259.43,282.22 247.85,276.02 257.41,273.75 		"/>
		<polygon class="st2" points="266.97,271.47 259.43,282.22 268.99,279.95 		"/>
	</g>
	<g>
		<polygon class="st2" points="330.11,271.47 341.68,277.68 332.12,279.95 		"/>
		<polygon class="st2" points="322.56,282.22 330.11,271.47 320.55,273.75 		"/>
		<polygon class="st2" points="322.56,282.22 310.99,276.02 320.55,273.75 		"/>
		<polygon class="st2" points="330.11,271.47 322.56,282.22 332.12,279.95 		"/>
	</g>
	<rect x="81.48" y="194.28" class="st3" width="339.8" height="101.61"/>
	<text transform="matrix(1 0 0 1 157.6366 213.6109)" class="st4 st5 st6">NETWORKING</text>
</g>
</svg>
