<?xml version="1.0" encoding="utf-8"?>
<!-- Generator: Adobe Illustrator 23.0.1, SVG Export Plug-In . SVG Version: 6.00 Build 0)  -->
<svg version="1.1" id="Layer_1" xmlns="http://www.w3.org/2000/svg" xmlns:xlink="http://www.w3.org/1999/xlink" x="0px" y="0px"
	 viewBox="0 0 481.9 340.2" style="enable-background:new 0 0 481.9 340.2;" xml:space="preserve">
<style type="text/css">
	.st0{display:none;}
	.st1{display:inline;fill:#D17474;}
	.st2{fill:#4B1717;}
	.st3{fill:#CC5A5A;}
	.st4{fill:#262222;}
	.st5{fill:#D8D8D8;}
	.st6{fill:#707071;}
	.st7{fill:#717071;}
	.st8{fill:#33332E;}
	.st9{fill:#1E1E1B;}
	.st10{fill:none;}
	.st11{fill:#232323;}
	.st12{font-family:'Arial-BoldMT';}
	.st13{font-size:27px;}
</style>
<g id="tie">
</g>
<g id="white_part_in_suit">
</g>
<g id="dark_spot">
</g>
<g id="tie_shading" class="st0">
	<path class="st1" d="M218.4,210l5.5-58.1l-5.5-21.3c0,0-2.6,20.5-4.2,17.3s-3.7-20.7-3.7-20.7l-4.6-5.9c0,0,3.7-7.6,2.9-9.8
		c7.5-6.2,7.5-6.2,7.5-6.2l15,10.3l-9.1,12.4l9.7,21.3L218.4,210z"/>
</g>
<g id="Layer_7">
</g>
<g id="Layer_8">
</g>
<g>
	<g>
		<path class="st2" d="M144.7,322.3V150.3c0,0-7-37.7,30.1-51.4s66.1-9.4,66.1-9.4v232.9H144.7z"/>
		<path class="st2" d="M337.3,322.3l-0.1-171.8c0,0,6.9-38-30.2-51.7c-37.1-13.7-66.1-9.4-66.1-9.4l0.1,232.9L337.3,322.3z"/>
		<path class="st3" d="M220.4,106.5l12,15.5c0,0-22.9,38.7-15.5,56.6s27.2,65.8,27.2,65.8l-3.2-154.9L220.4,106.5z"/>
		<path class="st3" d="M263.1,104.6L249.6,122c0,0,22.9,38.7,15.5,56.6s-27.2,65.8-27.2,65.8l3.2-154.9L263.1,104.6z"/>
		<polygon class="st3" points="251.3,212.3 244.2,244.3 243.8,229.9 		"/>
		<polyline class="st4" points="227.1,321.4 278,91 306,116.7 284.5,133.6 300.6,147.5 227.1,321.4 		"/>
		<polygon class="st4" points="202.8,91.3 183.8,115.5 198.4,124 180.8,137.1 243.6,249.3 		"/>
		<polygon class="st4" points="232.4,229.3 242.1,253.4 246.4,250.4 237.9,227.2 		"/>
		<polygon class="st5" points="240.9,89.4 209.1,115.8 202.8,91.3 232.4,71.4 		"/>
		<polygon class="st5" points="273.4,111.7 240.9,89.4 252.2,71.4 278,91 		"/>
		<path class="st6" d="M218.6,152.6c0,0,5.3-15.5,7.6-18.8c2.3-4.7,6.2-11.8,6.2-11.8l-12-15.5l-11.2,9.3L218.6,152.6z"/>
		<polygon class="st7" points="264,154.5 249.6,121.9 263.1,104.6 273.4,111.7 		"/>
	</g>
	<circle class="st8" cx="267.2" cy="279.8" r="7.1"/>
	<circle class="st8" cx="266.6" cy="253.4" r="7.1"/>
	<rect x="203.3" y="251.4" class="st8" width="20.2" height="4.1"/>
	<rect x="203.3" y="277.7" class="st8" width="20.2" height="4.1"/>
	<path class="st9" d="M266.3,257.1L266.3,257.1c-0.5,0-0.9-0.4-0.9-0.9v-4.8c0-0.5,0.4-0.9,0.9-0.9l0,0c0.5,0,0.9,0.4,0.9,0.9v4.8
		C267.2,256.7,266.8,257.1,266.3,257.1z"/>
	<path class="st9" d="M269.6,253.8L269.6,253.8c0,0.5-0.4,0.9-0.9,0.9h-4.8c-0.5,0-0.9-0.4-0.9-0.9l0,0c0-0.5,0.4-0.9,0.9-0.9h4.8
		C269.1,252.9,269.6,253.3,269.6,253.8z"/>
	<path class="st9" d="M267.2,283.1L267.2,283.1c-0.5,0-0.9-0.4-0.9-0.9v-4.8c0-0.5,0.4-0.9,0.9-0.9l0,0c0.5,0,0.9,0.4,0.9,0.9v4.8
		C268.1,282.7,267.7,283.1,267.2,283.1z"/>
	<path class="st9" d="M270.5,279.8L270.5,279.8c0,0.5-0.4,0.9-0.9,0.9h-4.8c-0.5,0-0.9-0.4-0.9-0.9l0,0c0-0.5,0.4-0.9,0.9-0.9h4.8
		C270.1,278.9,270.5,279.3,270.5,279.8z"/>
</g>
<rect x="49.3" y="32.3" class="st10" width="383.2" height="92"/>
<text transform="matrix(1 0 0 1 105.1999 54.4263)" class="st11 st12 st13">FACULTY MEMBERS</text>
<text transform="matrix(1 0 0 1 363.7095 54.4263)" class="st12 st13"> </text>
</svg>
