<?xml version="1.0" encoding="utf-8"?>
<!-- Generator: Adobe Illustrator 23.0.1, SVG Export Plug-In . SVG Version: 6.00 Build 0)  -->
<svg version="1.1" xmlns="http://www.w3.org/2000/svg" xmlns:xlink="http://www.w3.org/1999/xlink" x="0px" y="0px"
	 viewBox="0 0 481.9 340.2" style="enable-background:new 0 0 481.9 340.2;" xml:space="preserve">
<style type="text/css">
	.st0{fill:#A6C8E6;}
	.st1{fill:#F4D862;}
	.st2{fill:#E14A4A;}
	.st3{fill:#FFFFFF;}
	.st4{fill:none;}
	.st5{fill:#232323;}
	.st6{font-family:'Arial-BoldMT';}
	.st7{font-size:27px;}
</style>
<g id="bottom_of_lightbulb">
</g>
<g id="Layer_2">
</g>
<g id="Layer_3">
</g>
<g id="hand_in_globe">
</g>
<g id="Layer_5">
	<path class="st0" d="M203.6,266.1c0,0,12.2,40.8,35.1,40.8s31.8-40.8,31.8-40.8H203.6z"/>
	<polyline class="st0" points="203.6,266.1 203.6,233.8 270.5,233.8 270.5,266.1 	"/>
	<circle class="st1" cx="237.1" cy="192.7" r="52.7"/>
	<rect x="232.2" y="287.7" class="st2" width="11.6" height="4.7"/>
	<rect x="215.4" y="256.5" class="st2" width="43.6" height="4.7"/>
	<rect x="227.1" y="272.1" class="st2" width="21.1" height="4.7"/>
	<path class="st3" d="M278.4,225.5c0,0-13.6-15.9-14.5-17.7c-0.9-1.8-3.2-6.7-2.9-7.9c0.3-1.2-2.1-10.4-3.4-11.9
		c0.1-2.6,0.9-15.1-2-12.5s-1.4,12.3-2.5,10.7c-1.1-1.6-4.1-21.2-6.2-15.2c-2.1,6,3.4,19.2,0.1,14.5c-3.3-4.7-4.4-17.3-8.4-13.6
		c-4,3.7,8.4,19.3,3.7,15.7c-4.7-3.6-6.7-14.3-10.1-11.3s12,19.4,6.5,24.6c-8.2-1.5-17.4-2.6-14.9-0.2c2.5,2.5,3.9,2.5,5.8,3.3
		c1.9,0.9,4.5,0.8,4.7,2.2c0.2,1.3,16.3,5.6,16.5,6.4c0.2,0.9,19.7,20.7,19.7,20.7C273.6,230.8,276.3,228.2,278.4,225.5z"/>
	<path class="st1" d="M152.5,228.6h-30.3c-2.7,0-5-2.2-5-5v-1.7c0-2.7,2.2-5,5-5h30.3c2.7,0,5,2.2,5,5v1.7
		C157.5,226.4,155.3,228.6,152.5,228.6z"/>
	<path class="st1" d="M359.7,234.4h-30.3c-2.7,0-5-2.2-5-5v-1.7c0-2.7,2.2-5,5-5h30.3c2.7,0,5,2.2,5,5v1.7
		C364.7,232.2,362.4,234.4,359.7,234.4z"/>
	<path class="st1" d="M149.6,184.9l-28.4-10.5c-2.6-1-3.9-3.8-2.9-6.4l0.6-1.6c1-2.6,3.8-3.9,6.4-2.9l28.4,10.5
		c2.6,1,3.9,3.8,2.9,6.4l-0.6,1.6C155,184.6,152.1,185.9,149.6,184.9z"/>
	<path class="st1" d="M332.3,192.9l28.4-10.5c2.6-1,3.9-3.8,2.9-6.4l-0.6-1.6c-1-2.6-3.8-3.9-6.4-2.9L328.3,182
		c-2.6,1-3.9,3.8-2.9,6.4l0.6,1.6C326.9,192.5,329.8,193.8,332.3,192.9z"/>
	<path class="st1" d="M170,138.7l-20.3-22.5c-1.8-2-1.7-5.2,0.4-7l1.2-1.1c2-1.8,5.2-1.7,7,0.4l20.3,22.5c1.8,2,1.7,5.2-0.4,7
		l-1.2,1.1C174.9,140.9,171.8,140.8,170,138.7z"/>
	<path class="st1" d="M311.6,138.7l20.3-22.5c1.8-2,1.7-5.2-0.4-7l-1.2-1.1c-2-1.8-5.2-1.7-7,0.4L303,130.9c-1.8,2-1.7,5.2,0.4,7
		l1.2,1.1C306.6,140.9,309.8,140.8,311.6,138.7z"/>
	<path class="st1" d="M231.3,118.6V88.3c0-2.7,2.2-5,5-5h1.7c2.7,0,5,2.2,5,5v30.3c0,2.7-2.2,5-5,5h-1.7
		C233.5,123.6,231.3,121.4,231.3,118.6z"/>
	<rect x="120.3" y="33.2" class="st4" width="241.2" height="70.2"/>
	<text transform="matrix(1 0 0 1 129.9191 52.5428)" class="st5 st6 st7">PEER ADVISORS </text>
</g>
</svg>
