<?xml version="1.0" encoding="utf-8"?>
<!-- Generator: Adobe Illustrator 23.0.1, SVG Export Plug-In . SVG Version: 6.00 Build 0)  -->
<svg version="1.1" id="Layer_1" xmlns="http://www.w3.org/2000/svg" xmlns:xlink="http://www.w3.org/1999/xlink" x="0px" y="0px"
	 viewBox="0 0 481.9 340.2" style="enable-background:new 0 0 481.9 340.2;" xml:space="preserve">
<style type="text/css">
	.st0{fill:#F4D862;}
	.st1{fill:#E14A4A;}
	.st2{fill:#E9E7E7;}
	.st3{fill:#F6D9B5;}
	.st4{fill:#EFC69A;}
	.st5{fill:#93877C;}
	.st6{fill:#F5D9B5;}
	.st7{fill:#98D2B0;}
	.st8{fill:#DC2026;}
	.st9{fill:#EAEAEA;}
	.st10{fill:#D26A28;}
	.st11{fill:#A44F24;}
	.st12{fill:#5A2A0F;}
	.st13{fill:#D26B28;}
	.st14{fill:#A6C8E6;}
	.st15{fill:#F2C57E;}
	.st16{fill:#DEA54F;}
	.st17{fill:#C37529;}
	.st18{fill:none;}
	.st19{fill:#232323;}
	.st20{font-family:'Arial-BoldMT';}
	.st21{font-size:36px;}
</style>
<g id="Layer_6">
</g>
<g id="wood_parts">
</g>
<g id="grey_rectangle">
</g>
<g id="above_grey_rectangle">
</g>
<g id="dark_spot">
</g>
<g id="Layer_5">
</g>
<g id="bangs">
</g>
<g id="guy_suit__x2B__finish_girl_bang">
</g>
<g id="tie">
</g>
<g id="white_part_by_tie">
</g>
<g id="neck">
</g>
<g id="neck_pt2">
</g>
<g id="hair">
</g>
<g id="head_for_tie_guy">
</g>
<g id="last_guy">
</g>
<g id="Layer_17">
</g>
<g id="Layer_16">
</g>
<g id="uppper_neck">
</g>
<g id="head">
</g>
<g>
	<path class="st0" d="M197.8,266.9c0,0-18.8-129.8,42.1-129.1s40.7,127,40.7,127L197.8,266.9z"/>
	<path class="st1" d="M189.9,291c0,0,1.6-25.9,11.8-27.5s19-3.4,19-7.6c0-4.1,0-4.1,0-4.1h18.9V291L189.9,291L189.9,291L189.9,291z"
		/>
	<path class="st1" d="M289.5,291c0,0-1.6-25.9-11.8-27.5s-19-3.4-19-7.6c0-4.1,0-4.1,0-4.1h-18.9V291L289.5,291L289.5,291z"/>
	<rect x="220.7" y="247.3" class="st2" width="37.8" height="4.5"/>
	<path class="st3" d="M220.7,247.3h37.8v-9.3c0,0-10.3,4.7-18.9,4.6c-8.6-0.1-18.9-4.6-18.9-4.6V247.3z"/>
	<path class="st4" d="M220.7,238.6v-5.7l18.9,6.4l18.9-6.4v5.7c0.1,0.9-13.9,5.1-18.9,4.6C234.3,242.8,220.3,239.7,220.7,238.6z"/>
	<rect x="240.2" y="251.9" class="st5" width="1.1" height="39.2"/>
	<path class="st6" d="M220.7,232.9c0,0-10.1-6.4-12.4-15.4s-3.9-13.8-3.9-13.8s-6.8-3.1-6.8-8.7c0-5.6,5.9-9.6,8.4-9.6
		c2.5,0,10.2-25.3,34.6-25.6c-0.9,37.1-1.1,79.5-1.1,79.5L220.7,232.9z"/>
	<path class="st6" d="M258.3,232.9c0,0,10.1-6.4,12.4-15.4c2.2-9,3.9-13.8,3.9-13.8s6.8-3.1,6.8-8.7c0-5.6-5.9-9.6-8.4-9.6
		s-10.2-25.3-34.6-25.6c0.9,37.1,1.1,79.5,1.1,79.5L258.3,232.9z"/>
	<path class="st0" d="M219.2,168.5c0,0,11.6,5.7,11.3,9.3c-0.4,3.6,2.6-7,0-9.3s7.4,8.3,7.8,10c0.4,1.8-1-11.6-2.8-12.7
		s5.6,5.4,5.2,7.9s3.4-7.5,0.6-8.1c0,0,7.9,3.6,7,10.3c-0.8,6.7,3.5-4.9,0.1-9.5c0,0,8.9,10.5,7.8,13.8c0,0,1.1-9.3-2.2-12.7
		c-3.4-3.4-3.4-3.4-3.4-3.4l0,0c0,0,12.3,17.4,11.4,19.7l-2.2-15.5c0,0-3.8-8.2-20.4-8.7C222.8,159.4,219.2,168.5,219.2,168.5z"/>
	<path class="st0" d="M259.8,168.5c0,0,4.4,9.5,3.3,13.5c0,0,3.1-11,1.4-13.5C262.9,166,259.8,168.5,259.8,168.5z"/>
</g>
<g>
	<path class="st7" d="M28.9,289.2c0,0,2.2-18.3,14-20.9s26.7-4.2,27.9-12.6c1.2-8.4,1.2-8.4,1.2-8.4h17.4v42H28.9z"/>
	<path class="st7" d="M149.9,289.2c0,0-2.2-18.3-14-20.9s-26.7-4.2-27.9-12.6c-1.2-8.4-1.2-8.4-1.2-8.4H89.4v42H149.9z"/>
</g>
<path class="st8" d="M91.7,249.1l-7.8,8.2l3.9,6.4c0,0-3.2-1.7-3.9,1.5s-6.8,23.7-6.8,23.7h14.6V249.1z"/>
<path class="st8" d="M91.7,249.1l7.8,8.2l-3.9,6.4c0,0,3.2-1.7,3.9,1.5s6.8,23.7,6.8,23.7H91.7V249.1z"/>
<polygon class="st9" points="91.7,249.1 79.6,261.9 65.4,249.1 67.1,246 "/>
<polygon class="st9" points="91.7,249.1 103.8,261.9 118,249.1 116.3,246 "/>
<path class="st10" d="M70.1,246l21.6,3.1l20.9-2.6l-1.3-9.5c0,0-14.3,5.5-19.6,4.9c-5.3-0.6-20.7-4.2-20.7-4.2L70.1,246z"/>
<path class="st11" d="M71,237.7v-6.4c0,0,9.9,6.5,20.7,5.7s17.9-5.7,17.9-5.7l1.7,5.7c0.3,0.8-13.1,5.6-17.9,4.9
	C89,243,70.8,238.4,71,237.7z"/>
<path class="st12" d="M59.4,194.3c0,0-12.8-51,32.5-49.9c0.4,44.9,0.1,49.9,0.1,49.9H59.4z"/>
<path class="st12" d="M123.6,194.3c0,0,12.6-51-32.7-49.9c-0.4,44.9,0.1,49.9,0.1,49.9H123.6z"/>
<path class="st13" d="M91.2,239.2c0,0,28.4,2.5,29-25c0,0,6.6-4.1,7-11.5c0.4-7.5-7-12.2-7-12.2s3.1-21.2-6.7-25.4s-22.2-4-22.2-4
	V239.2z"/>
<path class="st13" d="M92,239.2c0,0-28.1,2.6-28.7-24.8c0,0-6.6-4.1-7-11.5s7-12.2,7-12.2s-3.1-21.2,6.7-25.4s21.9-4.2,21.9-4.2
	V239.2z"/>
<g>
	<path class="st14" d="M329.4,287.8c0,0,0-30,20.9-33.9c20.9-3.9,20.9-3.9,20.9-3.9s1.7,11.3,7.8,11.8c4.4,1.7,9.6,0.8,9.6,0.8v25.1
		H329.4z"/>
	<path class="st14" d="M447.6,287.8c0,0,0-30-20.9-33.9c-20.9-3.9-20.9-3.9-20.9-3.9s-1.7,11.3-7.8,11.8c-4.4,1.7-9.6,0.8-9.6,0.8
		v25.1H447.6z"/>
	<polygon class="st2" points="446.8,279.4 330.3,279.4 330.7,277.2 446.4,277.2 	"/>
	<polygon class="st2" points="445.5,273.7 331.6,273.7 332.3,271.6 444.8,271.6 	"/>
	<polygon class="st2" points="443.4,268.1 333.7,268.1 334.7,265.9 442.3,265.9 	"/>
	<path class="st2" d="M440.1,262.4H337c0.5-0.7,1.1-1.4,1.8-2.1h99.6C439,261.1,439.7,261.8,440.1,262.4z"/>
	<path class="st2" d="M434.1,256.8h-91.2c1.3-0.8,2.8-1.5,4.5-2.1l82.6,0.1C431.2,255.1,432.6,255.9,434.1,256.8z"/>
	<polygon class="st2" points="447.5,285 329.6,285 329.8,282.9 447.3,282.7 	"/>
	<path class="st15" d="M371.1,250c0,0,2.9-2.4,2.9-5.8s0-8.2,0-8.2h14.5v28.5C388.5,264.6,372.2,268.3,371.1,250z"/>
	<path class="st15" d="M405.9,250c0,0-2.9-2.4-2.9-5.8s0-8.2,0-8.2h-14.5v28.5C388.5,264.6,404.9,268.3,405.9,250z"/>
	<path class="st16" d="M374.1,236v-6.6c0,0,9.7,4,14.5,4s14-3.6,14-3.6l0.5,6.2H374.1z"/>
	<path class="st15" d="M388.4,233.5c0,0,27.3,2.2,29.5-34.4c0,0,4.5-8.4,3.6-15.6c-0.8-6.7-5.6-0.9-7.2,1c0,0,2.6-29.2-26-30.6
		C388.4,233.5,388.4,233.5,388.4,233.5z"/>
	<path class="st15" d="M388.8,233.5c0,0-27.3,2.2-29.5-34.4c0.9,1.6-6.6-9.4-3.6-15.6c3.1-6.5,7.2,1,7.2,1s-2.6-29.2,26-30.6
		C388.8,233.5,388.8,233.5,388.8,233.5z"/>
	<path class="st17" d="M359,180.8c0,0-3.6-37.7,12.7-40.8c0,0,7.2-13.5,27.3-10.1c22.8,3.9,24.6,59.5,14.1,58.9l-5-17.3
		c0,0-36,7.9-39.2-10.1c-5.9,25.8-5.9,25.8-5.9,25.8L359,180.8z"/>
</g>
<rect x="37.4" y="58.3" class="st18" width="389.5" height="89.8"/>
<text transform="matrix(1 0 0 1 81.082 84.076)" class="st19 st20 st21">STUDENT PANEL</text>
</svg>
