<?xml version="1.0" encoding="utf-8"?>
<!-- Generator: Adobe Illustrator 23.0.1, SVG Export Plug-In . SVG Version: 6.00 Build 0)  -->
<svg version="1.1" id="Layer_1" xmlns="http://www.w3.org/2000/svg" xmlns:xlink="http://www.w3.org/1999/xlink" x="0px" y="0px"
	 viewBox="0 0 481.9 340.2" style="enable-background:new 0 0 481.9 340.2;" xml:space="preserve">
<style type="text/css">
	.st0{display:none;}
	.st1{display:inline;fill:#E14A4A;}
	.st2{fill:#DC2026;}
	.st3{fill:#E14A4A;}
	.st4{fill:#FFFFFF;}
	.st5{fill:#E9E7E7;}
	.st6{fill:none;}
	.st7{fill:#232323;}
	.st8{font-family:'Arial-BoldMT';}
	.st9{font-size:27px;}
	.st10{fill:#999897;}
</style>
<g id="circle_-_big" class="st0">
	<circle class="st1" cx="240.9" cy="170.1" r="143.1"/>
</g>
<g id="dark_red_triangle">
</g>
<g id="Layer_3">
</g>
<g id="last_triangle">
	<g>
		<path class="st2" d="M268.5,81l-27.6,123.2l110.2,61.4c0,0,27.6-46.2,7.9-105.7S276.4,82.5,268.5,81z"/>
		<path class="st3" d="M138.6,270l92-51.2l92,51.2c0,0-29.9,56.1-92,54C168.6,322,139.3,277.8,138.6,270z"/>
		<path class="st3" d="M128.8,251.1l92-51.2l23-102.8c0,0-64.4-13.8-103.9,35.4S118.8,236.3,128.8,251.1z"/>
	</g>
</g>
<g id="inner_box">
	<rect x="266" y="129.5" class="st4" width="71.4" height="82.3"/>
</g>
<g id="gray_rectangles">
	<rect x="266" y="129.5" class="st5" width="4" height="82.3"/>
	<rect x="125.2" y="210.5" class="st5" width="64.5" height="2.5"/>
	<rect x="266" y="207.8" class="st5" width="71.4" height="4"/>
	<rect x="125.2" y="193.1" class="st4" width="10.6" height="17.4"/>
	<rect x="143.2" y="183.9" class="st4" width="10.6" height="26.6"/>
	<rect x="161.1" y="171.7" class="st4" width="10.6" height="38.8"/>
	<rect x="179.1" y="129" class="st4" width="10.6" height="81.5"/>
	<rect x="73.2" y="34.3" class="st6" width="335.5" height="65.4"/>
	<text transform="matrix(1 0 0 1 122.4508 57.8727)" class="st7 st8 st9">CONCENTRATION</text>
</g>
<g id="more_gray_rectangles">
	<rect x="274.6" y="202.9" class="st10" width="1.4" height="4.9"/>
	<rect x="270.1" y="196.7" class="st10" width="4.9" height="1.4"/>
	<rect x="270.1" y="190.9" class="st10" width="4.9" height="1.4"/>
	<rect x="270.1" y="185.1" class="st10" width="4.9" height="1.4"/>
	<rect x="270.1" y="179.3" class="st10" width="4.9" height="1.4"/>
	<rect x="270.1" y="173.5" class="st10" width="4.9" height="1.4"/>
	<rect x="270.1" y="167.8" class="st10" width="4.9" height="1.4"/>
	<rect x="270.1" y="162" class="st10" width="4.9" height="1.4"/>
	<rect x="270.1" y="156.2" class="st10" width="4.9" height="1.4"/>
	<rect x="270.1" y="150.4" class="st10" width="4.9" height="1.4"/>
	<rect x="270.1" y="144.6" class="st10" width="4.9" height="1.4"/>
	<rect x="270.1" y="138.8" class="st10" width="4.9" height="1.4"/>
	<rect x="270.1" y="133" class="st10" width="4.9" height="1.4"/>
	<rect x="281.1" y="202.9" class="st10" width="1.4" height="4.9"/>
	<rect x="287.6" y="202.9" class="st10" width="1.4" height="4.9"/>
	<rect x="294.1" y="202.9" class="st10" width="1.4" height="4.9"/>
	<rect x="300.6" y="202.9" class="st10" width="1.4" height="4.9"/>
	<rect x="307.2" y="202.9" class="st10" width="1.4" height="4.9"/>
	<rect x="313.7" y="202.9" class="st10" width="1.4" height="4.9"/>
	<rect x="320.2" y="202.9" class="st10" width="1.4" height="4.9"/>
	<rect x="333.2" y="202.9" class="st10" width="1.4" height="4.9"/>
	<rect x="326.7" y="202.9" class="st10" width="1.4" height="4.9"/>
</g>
<g id="line_graph">
	<path class="st2" d="M281.1,186.5l2.7-7.2l2.2,2.6v-8.7l2.3,1.7l0.7-1.7l1.3,1.7c0,0,10.3-2.3,11.8-8.8s7.3-5.8,9.8-1.5
		s5.5-7.8,5.5-7.8l4.3,5.1l1-12.9l2.2,2.7l8.4-11.6l-8.5,8.8l-3.6-4.4l-1.1,12.3l-3.1-4.2c0,0-2.2,11-4.1,9.3
		c-1.9-1.7-3.2-5.9-7.1-4.4c-3.9,1.5-4.5,5.2-6.7,7.9c-2.2,2.6-7.9,8.6-8.4,7.1c-0.5-1.5-2-3.4-2-3.4l-0.8,3.4l-3.3-3.4l-0.2,7.8
		l-2-2.7L281.1,186.5z"/>
</g>
<g id="question_mark">
	<circle class="st4" cx="227.8" cy="307.7" r="9.1"/>
	<path class="st4" d="M220.2,289.2c0,0-2.2-14.1,2.2-17.8s22.7-11,21.1-20.3c-1.6-9.3-24.2-4.8-23.9-2.9c-1.7-9-3.3-13.4-3.3-13.4
		s16-3.4,30.1,0s18.2,22.5,14.6,26.4c-3.7,4-26.1,10.7-27.1,16.1s-1,11.9-1,11.9L220.2,289.2L220.2,289.2z"/>
</g>
<g id="bar_graph">
</g>
</svg>
