<?xml version="1.0" encoding="utf-8"?>
<!-- Generator: Adobe Illustrator 23.0.1, SVG Export Plug-In . SVG Version: 6.00 Build 0)  -->
<svg version="1.1" id="Layer_1" xmlns="http://www.w3.org/2000/svg" xmlns:xlink="http://www.w3.org/1999/xlink" x="0px" y="0px"
	 viewBox="0 0 481.9 340.2" style="enable-background:new 0 0 481.9 340.2;" xml:space="preserve">
<style type="text/css">
	.st0{fill:#E14A4A;}
	.st1{fill:#FCFAFB;}
	.st2{fill:#DC2026;}
	.st3{fill:#A6C8E6;}
	.st4{fill:#10476D;}
	.st5{fill:none;}
	.st6{fill:#232323;}
	.st7{font-family:'Arial-BoldMT';}
	.st8{font-size:27px;}
	.st9{fill:#F4D862;}
	.st10{font-size:11.1885px;}
	.st11{fill:#D8D8D8;}
</style>
<g id="top_of_calendar">
</g>
<g id="grey_block">
</g>
<path class="st0" d="M240.9,20.2"/>
<g>
	<path class="st0" d="M74.8,88.3l0.2-57.6c-0.1-0.3,2.7-18.4,20.4-18.1c14.4,0.2,145.3-0.7,145.3-0.7l0.3,76.3L74.8,88.3z"/>
	<path class="st0" d="M407.1,87.3L407,30.7c0.6-0.9-3-19.2-20.4-18.1c-14.4,0.9-147.1-0.7-147.1-0.7l1.4,76.3L407.1,87.3z"/>
</g>
<path class="st1" d="M74.8,88.3l0,187c0,0-3.6,49.4,52.8,50.3c56.4,1,230,0.1,230,0.1s48.3-2.8,48.3-61.6c0-58.9,0.9-177,0.9-177
	L74.8,88.3z"/>
<polygon class="st2" points="94.1,54.5 83.8,35.9 94.3,17.3 104.2,35.9 "/>
<polygon class="st3" points="94.1,47.4 87.7,35.9 94.2,24.4 100.3,35.9 "/>
<path class="st4" d="M94.6,37.4h-1.3c-1.4,0-2.5-1.1-2.5-2.5V7.3c0-1.4,1.1-2.5,2.5-2.5h1.3c1.4,0,2.5,1.1,2.5,2.5v27.7
	C97.1,36.3,96,37.4,94.6,37.4z"/>
<polygon class="st2" points="390.6,56.1 380.4,37.5 390.8,19 400.7,37.5 "/>
<polygon class="st3" points="390.6,49 384.2,37.5 390.7,26.1 396.8,37.5 "/>
<path class="st4" d="M391.2,39.1h-1.3c-1.4,0-2.5-1.1-2.5-2.5V8.9c0-1.4,1.1-2.5,2.5-2.5h1.3c1.4,0,2.5,1.1,2.5,2.5v27.7
	C393.7,38,392.5,39.1,391.2,39.1z"/>
<rect x="127.3" y="43.1" class="st5" width="227.2" height="66.1"/>
<text transform="matrix(1 0 0 1 107.2284 63.5243)" class="st6 st7 st8">Economics Calendar</text>
<rect x="88.6" y="98.3" class="st9" width="34.3" height="10.8"/>
<rect x="133.6" y="98.3" class="st9" width="34.3" height="10.8"/>
<rect x="178.7" y="98.3" class="st9" width="34.3" height="10.8"/>
<rect x="223.8" y="98.3" class="st9" width="34.3" height="10.8"/>
<rect x="268.8" y="98.3" class="st9" width="34.3" height="10.8"/>
<rect x="313.9" y="98.3" class="st9" width="34.3" height="10.8"/>
<rect x="359" y="98.3" class="st9" width="34.3" height="10.8"/>
<rect x="88.6" y="100.1" class="st5" width="34.3" height="10.8"/>
<text transform="matrix(1 0 0 1 97.9874 108.1224)" class="st7 st10">SU</text>
<rect x="133.6" y="100.1" class="st5" width="34.3" height="10.8"/>
<text transform="matrix(1 0 0 1 146.1617 108.1224)" class="st7 st10">M</text>
<rect x="178.7" y="100.1" class="st5" width="34.3" height="10.8"/>
<text transform="matrix(1 0 0 1 192.4669 108.1224)" class="st7 st10">T</text>
<rect x="222.7" y="100.1" class="st5" width="34.3" height="10.8"/>
<text transform="matrix(1 0 0 1 234.629 108.1224)" class="st7 st10">W</text>
<rect x="268.8" y="100.1" class="st5" width="34.3" height="10.8"/>
<text transform="matrix(1 0 0 1 278.5528 108.1224)" class="st7 st10">TH</text>
<rect x="313.9" y="100.1" class="st5" width="34.3" height="10.8"/>
<text transform="matrix(1 0 0 1 327.6553 108.1224)" class="st7 st10">F</text>
<rect x="359" y="100.1" class="st5" width="34.3" height="10.8"/>
<text transform="matrix(1 0 0 1 368.3643 108.1224)" class="st7 st10">SA</text>
<g>
	<polygon class="st11" points="114.2,151.3 122.7,166 114.2,180.6 97.3,180.6 88.8,166 97.3,151.3 	"/>
	<polygon class="st11" points="114.2,191.6 122.7,206.3 114.2,221 97.3,221 88.8,206.3 97.3,191.6 	"/>
	<polygon class="st11" points="114.2,231.9 122.7,246.6 114.2,261.3 97.3,261.3 88.8,246.6 97.3,231.9 	"/>
	<polygon class="st11" points="114.2,272.2 122.7,286.9 114.2,301.6 97.3,301.6 88.8,286.9 97.3,272.2 	"/>
</g>
<g>
	<polygon class="st11" points="159.3,151.3 167.8,166 159.3,180.6 142.4,180.6 133.9,166 142.4,151.3 	"/>
	<polygon class="st11" points="159.3,191.6 167.8,206.3 159.3,221 142.4,221 133.9,206.3 142.4,191.6 	"/>
	<polygon class="st11" points="159.3,231.9 167.8,246.6 159.3,261.3 142.4,261.3 133.9,246.6 142.4,231.9 	"/>
	<polygon class="st11" points="159.3,272.2 167.8,286.9 159.3,301.6 142.4,301.6 133.9,286.9 142.4,272.2 	"/>
</g>
<g>
	<polygon class="st11" points="249.4,151.3 257.9,166 249.4,180.6 232.5,180.6 224,166 232.5,151.3 	"/>
	<polygon class="st11" points="249.4,191.6 257.9,206.3 249.4,221 232.5,221 224,206.3 232.5,191.6 	"/>
	<polygon class="st11" points="249.4,231.9 257.9,246.6 249.4,261.3 232.5,261.3 224,246.6 232.5,231.9 	"/>
	<polygon class="st11" points="249.4,272.2 257.9,286.9 249.4,301.6 232.5,301.6 224,286.9 232.5,272.2 	"/>
</g>
<polygon class="st11" points="294.5,151.3 302.9,166 294.5,180.6 277.5,180.6 269.1,166 277.5,151.3 "/>
<polygon class="st11" points="294.5,116.5 302.9,131.1 294.5,145.8 277.5,145.8 269.1,131.1 277.5,116.5 "/>
<polygon class="st11" points="249.4,116.5 257.9,131.1 249.4,145.8 232.5,145.8 224,131.1 232.5,116.5 "/>
<polygon class="st11" points="294.5,191.6 302.9,206.3 294.5,221 277.5,221 269.1,206.3 277.5,191.6 "/>
<polygon class="st11" points="294.5,231.9 302.9,246.6 294.5,261.3 277.5,261.3 269.1,246.6 277.5,231.9 "/>
<polygon class="st11" points="294.5,272.2 302.9,286.9 294.5,301.6 277.5,301.6 269.1,286.9 277.5,272.2 "/>
<g>
	<polygon class="st0" points="339.5,151.3 348,166 339.5,180.6 322.6,180.6 314.1,166 322.6,151.3 	"/>
	<polygon class="st0" points="339.5,116.5 348,131.1 339.5,145.8 322.6,145.8 314.1,131.1 322.6,116.5 	"/>
	<polygon class="st0" points="384.6,116.5 393.1,131.1 384.6,145.8 367.7,145.8 359.2,131.1 367.7,116.5 	"/>
	<polygon class="st0" points="339.5,191.6 348,206.3 339.5,221 322.6,221 314.1,206.3 322.6,191.6 	"/>
	<polygon class="st0" points="339.5,231.9 348,246.6 339.5,261.3 322.6,261.3 314.1,246.6 322.6,231.9 	"/>
	<polygon class="st0" points="339.5,272.2 348,286.9 339.5,301.6 322.6,301.6 314.1,286.9 322.6,272.2 	"/>
</g>
<g>
	<polygon class="st11" points="204.3,151.3 212.8,166 204.3,180.6 187.4,180.6 179,166 187.4,151.3 	"/>
	<polygon class="st11" points="204.3,191.6 212.8,206.3 204.3,221 187.4,221 179,206.3 187.4,191.6 	"/>
	<polygon class="st11" points="204.3,231.9 212.8,246.6 204.3,261.3 187.4,261.3 179,246.6 187.4,231.9 	"/>
	<polygon class="st11" points="204.3,272.2 212.8,286.9 204.3,301.6 187.4,301.6 179,286.9 187.4,272.2 	"/>
</g>
<g>
	<polygon class="st0" points="384.6,151.3 393.1,166 384.6,180.6 367.7,180.6 359.2,166 367.7,151.3 	"/>
	<polygon class="st0" points="384.6,191.6 393.1,206.3 384.6,221 367.7,221 359.2,206.3 367.7,191.6 	"/>
	<polygon class="st0" points="384.6,231.9 393.1,246.6 384.6,261.3 367.7,261.3 359.2,246.6 367.7,231.9 	"/>
	<polygon class="st0" points="384.6,272.2 393.1,286.9 384.6,301.6 367.7,301.6 359.2,286.9 367.7,272.2 	"/>
</g>
</svg>
