<?xml version="1.0" encoding="utf-8"?>
<!-- Generator: Adobe Illustrator 23.0.1, SVG Export Plug-In . SVG Version: 6.00 Build 0)  -->
<svg version="1.1" xmlns="http://www.w3.org/2000/svg" xmlns:xlink="http://www.w3.org/1999/xlink" x="0px" y="0px"
	 viewBox="0 0 481.89 340.16" style="enable-background:new 0 0 481.89 340.16;" xml:space="preserve">
<style type="text/css">
	.st0{display:none;}
	.st1{display:inline;fill:#D17474;}
	.st2{fill:#4B1717;}
	.st3{fill:#CC5A5A;}
	.st4{fill:#262222;}
	.st5{fill:#D8D8D8;}
	.st6{fill:#707071;}
	.st7{fill:#717071;}
	.st8{fill:#33332E;}
	.st9{fill:#1E1E1B;}
	.st10{fill:none;}
	.st11{fill:#232323;}
	.st12{font-family:'Arial-BoldMT';}
	.st13{font-size:27px;}
</style>
<g id="Layer_1">
</g>
<g id="tie">
</g>
<g id="Layer_2">
</g>
<g id="white_part_in_suit">
</g>
<g id="dark_spot">
</g>
<g id="tie_shading" class="st0">
	<path class="st1" d="M218.41,209.98l5.46-58.06l-5.46-21.31c0,0-2.57,20.53-4.25,17.3s-3.72-20.73-3.72-20.73l-4.61-5.95
		c0,0,3.69-7.6,2.87-9.8c7.54-6.24,7.54-6.24,7.54-6.24l14.99,10.27l-9.09,12.39l9.69,21.34L218.41,209.98z"/>
</g>
<g id="Layer_7">
</g>
<g id="Layer_8">
</g>
<g id="Layer_9">
	<g>
		<g>
			<path class="st2" d="M168.45,288.28V158.65c0,0-5.24-28.42,22.71-38.73s49.78-7.08,49.78-7.08v175.44H168.45z"/>
			<path class="st2" d="M313.5,288.23l-0.06-129.42c0,0,5.23-28.64-22.73-38.92c-27.95-10.29-49.79-7.05-49.79-7.05l0.08,175.44
				L313.5,288.23z"/>
			<path class="st3" d="M225.44,125.67l9.04,11.65c0,0-17.22,29.19-11.64,42.64s20.52,49.53,20.52,49.53l-2.42-116.65L225.44,125.67
				z"/>
			<path class="st3" d="M257.62,124.28l-10.12,13.05c0,0,17.22,29.19,11.64,42.64c-5.58,13.45-20.52,49.53-20.52,49.53l2.42-116.65
				L257.62,124.28z"/>
			<polygon class="st3" points="248.71,205.39 243.36,229.5 243.13,218.61 			"/>
			<polyline class="st4" points="230.55,287.55 268.83,114.03 289.96,133.38 273.73,146.13 285.9,156.57 230.55,287.55 			"/>
			<polygon class="st4" points="212.2,114.2 197.91,132.48 208.93,138.85 195.6,148.71 242.94,233.29 			"/>
			<polygon class="st4" points="234.48,218.18 241.84,236.37 245.03,234.05 238.64,216.63 			"/>
			<polygon class="st5" points="240.94,112.84 216.97,132.68 212.2,114.2 234.48,99.24 			"/>
			<polygon class="st5" points="265.4,129.6 240.94,112.84 249.44,99.24 268.83,114.03 			"/>
			<path class="st6" d="M224.12,160.4c0,0,4.03-11.65,5.71-14.19c1.74-3.52,4.65-8.88,4.65-8.88l-9.04-11.65l-8.47,7.01
				L224.12,160.4z"/>
			<polygon class="st7" points="258.29,161.82 247.5,137.32 257.62,124.28 265.4,129.6 			"/>
		</g>
		<circle class="st8" cx="260.71" cy="256.22" r="5.37"/>
		<circle class="st8" cx="260.25" cy="236.37" r="5.37"/>
		<rect x="212.62" y="234.83" class="st8" width="15.19" height="3.08"/>
		<rect x="212.62" y="254.68" class="st8" width="15.19" height="3.08"/>
		<path class="st9" d="M260.01,239.12L260.01,239.12c-0.38,0-0.69-0.31-0.69-0.69v-3.59c0-0.38,0.31-0.69,0.69-0.69l0,0
			c0.38,0,0.69,0.31,0.69,0.69v3.59C260.71,238.81,260.4,239.12,260.01,239.12z"/>
		<path class="st9" d="M262.5,236.64L262.5,236.64c0,0.38-0.31,0.69-0.69,0.69h-3.59c-0.38,0-0.69-0.31-0.69-0.69l0,0
			c0-0.38,0.31-0.69,0.69-0.69h3.59C262.19,235.95,262.5,236.25,262.5,236.64z"/>
		<path class="st9" d="M260.71,258.7L260.71,258.7c-0.38,0-0.69-0.31-0.69-0.69v-3.59c0-0.38,0.31-0.69,0.69-0.69l0,0
			c0.38,0,0.69,0.31,0.69,0.69v3.59C261.4,258.39,261.09,258.7,260.71,258.7z"/>
		<path class="st9" d="M263.19,256.22L263.19,256.22c0,0.38-0.31,0.69-0.69,0.69h-3.59c-0.38,0-0.69-0.31-0.69-0.69l0,0
			c0-0.38,0.31-0.69,0.69-0.69h3.59C262.88,255.53,263.19,255.84,263.19,256.22z"/>
	</g>
	<rect x="77.99" y="59.15" class="st10" width="334.07" height="80.18"/>
	<text transform="matrix(1 0 0 1 134.7414 78.479)"><tspan x="0" y="0" class="st11 st12 st13">Faculty Members</tspan><tspan x="220.57" y="0" class="st12 st13"> </tspan></text>
</g>
</svg>
