<?xml version="1.0" encoding="utf-8"?>
<!-- Generator: Adobe Illustrator 23.0.1, SVG Export Plug-In . SVG Version: 6.00 Build 0)  -->
<svg version="1.1" xmlns="http://www.w3.org/2000/svg" xmlns:xlink="http://www.w3.org/1999/xlink" x="0px" y="0px"
	 viewBox="0 0 481.89 340.16" style="enable-background:new 0 0 481.89 340.16;" xml:space="preserve">
<style type="text/css">
	.st0{fill:#11365A;}
	.st1{fill:#F4D862;}
	.st2{fill:#E9E7E7;}
	.st3{fill:#FFFFFF;}
	.st4{fill:none;}
	.st5{fill:#232323;}
	.st6{font-family:'Arial-BoldMT';}
	.st7{font-size:27px;}
	.st8{fill:#1A1A1D;}
</style>
<g id="bottom_of_lightbulb">
</g>
<g id="Layer_2">
</g>
<g id="Layer_3">
</g>
<g id="hand_in_globe">
</g>
<g id="Layer_5">
	<path class="st0" d="M203.63,266.1c0,0,12.24,40.8,35.09,40.8s31.83-40.8,31.83-40.8H203.63z"/>
	<polyline class="st0" points="203.63,266.1 203.63,233.81 270.54,233.81 270.54,266.1 	"/>
	<circle class="st1" cx="237.09" cy="192.72" r="52.71"/>
	<path class="st2" d="M263.64,285.6c-17.22,2.14-34.4,2.15-51.54,0c-0.33-0.59-0.69-1.25-1.07-1.95c17.84,1.38,35.69,1.38,53.53,0
		C264.29,284.25,263.98,284.91,263.64,285.6z"/>
	<path class="st2" d="M267.37,276.68c-20.96,1.78-40.94,2.12-59.54,0.42c-0.3-0.68-0.61-1.38-0.91-2.11
		c19.66,1.29,40.05,1.21,61.04,0C267.79,275.49,267.59,276.07,267.37,276.68z"/>
	<path class="st2" d="M270,268.27c-21.46,2.27-43.34,2.28-65.66,0l-0.71-2.17c22.73,2.03,45.02,2.13,66.87,0.21L270,268.27z"/>
	<path class="st2" d="M270.54,259.6c-22.28,1.6-44.59,1.44-66.92,0v-1.95c22.31,0.93,44.61,1.03,66.92,0V259.6z"/>
	<path class="st2" d="M270.54,250.93c-23.37,2.14-45.79,2.37-66.92,0v-1.95c21.19,1.36,43.6,1.24,66.92,0V250.93z"/>
	<path class="st2" d="M258.64,294.27c-13.65,1.68-27.26,1.68-40.84,0c-0.5-0.65-0.99-1.3-1.45-1.95c14.27,1.4,28.81,1.35,43.59,0
		C259.53,292.96,259.1,293.61,258.64,294.27z"/>
	<path class="st2" d="M250.41,302.94c-7.94,1.25-15.84,1.27-23.71,0c-0.95-0.65-1.81-1.3-2.57-1.95c9.56,1.12,19.13,1.12,28.69,0
		C252.03,301.75,251.23,302.4,250.41,302.94z"/>
	<path class="st3" d="M278.4,225.45c0,0-13.59-15.9-14.54-17.65c-0.95-1.75-3.17-6.72-2.87-7.9c0.3-1.18-2.12-10.4-3.38-11.85
		c0.13-2.64,0.94-15.12-1.98-12.45s-1.43,12.34-2.54,10.74c-1.1-1.6-4.09-21.24-6.2-15.2c-2.12,6.04,3.45,19.19,0.14,14.53
		c-3.31-4.66-4.36-17.27-8.36-13.57c-4,3.71,8.42,19.29,3.72,15.66c-4.7-3.62-6.66-14.32-10.05-11.35s11.99,19.4,6.45,24.59
		c-8.25-1.53-17.42-2.62-14.91-0.15c2.51,2.47,3.91,2.46,5.78,3.32c1.87,0.86,4.51,0.84,4.68,2.16c0.17,1.32,16.33,5.57,16.51,6.44
		c0.18,0.88,19.7,20.68,19.7,20.68C273.62,230.84,276.31,228.18,278.4,225.45z"/>
	<path class="st1" d="M152.51,228.58H122.2c-2.74,0-4.97-2.22-4.97-4.97v-1.67c0-2.74,2.22-4.97,4.97-4.97h30.31
		c2.74,0,4.97,2.22,4.97,4.97v1.67C157.48,226.35,155.26,228.58,152.51,228.58z"/>
	<path class="st1" d="M359.69,228.58h-30.31c-2.74,0-4.97-2.22-4.97-4.97v-1.67c0-2.74,2.22-4.97,4.97-4.97h30.31
		c2.74,0,4.97,2.22,4.97,4.97v1.67C364.65,226.35,362.43,228.58,359.69,228.58z"/>
	<path class="st1" d="M149.56,184.91l-28.43-10.52c-2.57-0.95-3.89-3.81-2.94-6.38l0.58-1.57c0.95-2.57,3.81-3.89,6.38-2.94
		l28.43,10.52c2.57,0.95,3.89,3.81,2.94,6.38l-0.58,1.57C154.99,184.55,152.13,185.87,149.56,184.91z"/>
	<path class="st1" d="M332.33,192.89l28.43-10.52c2.57-0.95,3.89-3.81,2.94-6.38l-0.58-1.57c-0.95-2.57-3.81-3.89-6.38-2.94
		L328.3,182c-2.57,0.95-3.89,3.81-2.94,6.38l0.58,1.57C326.9,192.53,329.76,193.84,332.33,192.89z"/>
	<path class="st1" d="M169.96,138.72l-20.32-22.49c-1.84-2.04-1.68-5.18,0.35-7.02l1.24-1.12c2.04-1.84,5.18-1.68,7.02,0.35
		l20.32,22.49c1.84,2.04,1.68,5.18-0.35,7.02l-1.24,1.12C174.94,140.91,171.8,140.75,169.96,138.72z"/>
	<path class="st1" d="M311.6,138.72l20.32-22.49c1.84-2.04,1.68-5.18-0.35-7.02l-1.24-1.12c-2.04-1.84-5.18-1.68-7.02,0.35
		l-20.32,22.49c-1.84,2.04-1.68,5.18,0.35,7.02l1.24,1.12C306.61,140.91,309.75,140.75,311.6,138.72z"/>
	<path class="st1" d="M231.28,118.61V88.3c0-2.74,2.22-4.97,4.97-4.97h1.67c2.74,0,4.97,2.22,4.97,4.97v30.31
		c0,2.74-2.22,4.97-4.97,4.97h-1.67C233.51,123.58,231.28,121.36,231.28,118.61z"/>
	<rect x="117.37" y="33.21" class="st4" width="241.25" height="70.25"/>
	<text transform="matrix(1 0 0 1 126.9649 52.5428)" class="st5 st6 st7">PEER ADVISORS </text>
</g>
<g id="curly_lines">
</g>
<g id="Layer_7">
	<path class="st8" d="M234.78,306.49c0.07-0.13,4.57,0.68,8.08-0.05c0.24,3.81-1.88,8.27-4.04,8.31
		C236.66,314.79,234.78,306.49,234.78,306.49z"/>
</g>
</svg>
