<?xml version="1.0" encoding="utf-8"?>
<!-- Generator: Adobe Illustrator 23.0.1, SVG Export Plug-In . SVG Version: 6.00 Build 0)  -->
<svg version="1.1" id="Layer_1" xmlns="http://www.w3.org/2000/svg" xmlns:xlink="http://www.w3.org/1999/xlink" x="0px" y="0px"
	 viewBox="0 0 481.9 340.2" style="enable-background:new 0 0 481.9 340.2;" xml:space="preserve">
<style type="text/css">
	.st0{fill:#A3753E;}
	.st1{fill:#CD964C;}
	.st2{fill:#D1BFAC;}
	.st3{fill:#35312E;}
	.st4{fill:none;}
	.st5{fill:#232323;}
	.st6{font-family:'Arial-BoldMT';}
	.st7{font-size:27px;}
</style>
<g id="FRONT">
</g>
<g>
	<g>
		<path class="st0" d="M239.5,186H344c0,0,14.8,131.7-28.8,134.8l-74.8-0.3L239.5,186z"/>
		<path class="st0" d="M241.7,186H137.2c0,0-14.8,131.7,28.8,134.8l74.8-0.3L241.7,186z"/>
	</g>
	<path class="st1" d="M240.2,151.9h104.5c0,0,14.8,104.5-28.8,107l-74.8-0.2L240.2,151.9z"/>
	<path class="st1" d="M242.4,151.9H137.9c0,0-14.8,104.5,28.8,107l74.8-0.2L242.4,151.9z"/>
	<path class="st2" d="M264.7,270.1h-47c-4.4,0-7.9-3.5-7.9-7.9v-6.8c0-4.4,3.5-7.9,7.9-7.9h47c4.4,0,7.9,3.5,7.9,7.9v6.8
		C272.5,266.5,269,270.1,264.7,270.1z"/>
	<path class="st3" d="M194.7,151.8c0,0-5.3-82.5,47.2-83.7c52.5-1.2,45.2,84,45.2,84l-16.1,0.2c0,0,6.2-68.4-29.3-68.4
		S208.4,152,208.4,152L194.7,151.8z"/>
	<path class="st2" d="M181.8,156.4"/>
</g>
<rect x="103" y="32.8" class="st4" width="273.5" height="67.4"/>
<text transform="matrix(1 0 0 1 122.7703 52.1358)" class="st5 st6 st7">POTENTIAL JOBS</text>
</svg>
