<?xml version="1.0" encoding="utf-8"?>
<!-- Generator: Adobe Illustrator 23.0.1, SVG Export Plug-In . SVG Version: 6.00 Build 0)  -->
<svg version="1.1" id="Layer_1" xmlns="http://www.w3.org/2000/svg" xmlns:xlink="http://www.w3.org/1999/xlink" x="0px" y="0px"
	 viewBox="0 0 481.9 340.2" style="enable-background:new 0 0 481.9 340.2;" xml:space="preserve">
<style type="text/css">
	.st0{fill:#98D2B1;}
	.st1{fill:#62BF80;}
	.st2{opacity:0.6;fill:#F2C57E;enable-background:new    ;}
	.st3{fill:#11365A;}
	.st4{opacity:0.8;fill:#E9E7E7;enable-background:new    ;}
	.st5{fill:#E9E7E7;}
	.st6{fill:#F7F2F2;}
	.st7{fill:none;}
	.st8{fill:#232323;}
	.st9{font-family:'Arial-BoldMT';}
	.st10{font-size:27px;}
	.st11{opacity:0.8;fill:#E14A4A;enable-background:new    ;}
	.st12{fill:#E14A4A;}
</style>
<g>
	<polygon class="st0" points="256.6,323.2 366.7,283.4 388,96.5 256.6,139.1 	"/>
	<polygon class="st0" points="225.6,141.2 94,96.5 133.7,292.8 241.1,325.6 	"/>
	<polygon class="st1" points="241.1,325.6 256.6,323.2 256.6,139.1 225.6,141.2 	"/>
	<path class="st2" d="M372.5,101.6v-5.3c0,0-67.9,14.1-79.4,18.3s-50.1,20.1-52,25.3c15.5,0,15.5-0.7,15.5-0.7L372.5,101.6z"/>
	<path class="st2" d="M107.6,101.1v-3.8c0,0,115.5,19.8,131.2,42.5c-12.8,2.1-13.2,1.3-13.2,1.3L107.6,101.1z"/>
</g>
<path class="st3" d="M341.1,254.6L314.7,217c-1.9-2.7-1.3-6.4,1.5-8.3l0,0c2.7-1.9,6.4-1.3,8.4,1.4l26.5,37.6
	c1.9,2.7,1.3,6.4-1.5,8.3l0,0C346.8,257.9,343,257.3,341.1,254.6z"/>
<circle class="st3" cx="305" cy="192.8" r="26.6"/>
<circle class="st4" cx="305" cy="192.8" r="18.6"/>
<circle class="st5" cx="295.8" cy="185.6" r="3.5"/>
<circle class="st6" cx="164.4" cy="234.3" r="26.3"/>
<rect x="163.8" y="194.9" transform="matrix(0.495 -0.8689 0.8689 0.495 -87.466 260.4251)" class="st6" width="33.1" height="21.2"/>
<path class="st6" d="M199.8,197.7l-22.8-13.2c-2.9-1.7-3.9-5.4-2.2-8.3l0,0c1.7-2.9,5.4-3.9,8.3-2.2l22.8,13.2
	c2.9,1.7,3.9,5.4,2.2,8.3l0,0C206.4,198.4,202.7,199.4,199.8,197.7z"/>
<rect x="109.3" y="39.8" class="st7" width="262.9" height="62.2"/>
<text transform="matrix(1 0 0 1 165.0156 59.1674)" class="st8 st9 st10">RESEARCH</text>
<path class="st11" d="M143.2,221.8l41,23.7c0,0-17.9,14.9-30.2,6.4C141.7,243.5,143.2,221.8,143.2,221.8z"/>
<path class="st12" d="M153,229.4c0,0-13.4,6,1.2,13.1C150.4,236.1,147.4,237.1,153,229.4z"/>
<path class="st12" d="M160.2,251.4L160.2,251.4c-1.5-0.9-2-2.8-1.1-4.3l2.7-4.7c0.9-1.5,2.8-2,4.3-1.1l0,0c1.5,0.9,2,2.8,1.1,4.3
	l-2.7,4.7C163.6,251.8,161.7,252.3,160.2,251.4z"/>
<path class="st12" d="M175.7,248.7L175.7,248.7c-1.5-0.9-2-2.8-1.1-4.3l0,0c0.9-1.5,2.8-2,4.3-1.1l0,0c1.5,0.9,2,2.8,1.1,4.3l0,0
	C179.1,249.1,177.2,249.6,175.7,248.7z"/>
</svg>
